<?xml version="1.0" encoding="UTF-8" standalone="no"?>
<!DOCTYPE svg PUBLIC "-//W3C//DTD SVG 1.1//EN" "http://www.w3.org/Graphics/SVG/1.1/DTD/svg11.dtd">
<svg xmlns="http://www.w3.org/2000/svg" version="1.1" viewBox="0 0 500 500" width="500.0pt" height="500.0pt">
<path d="M 0.00 0.00 L 500.00 0.00 L 500.00 500.00 L 0.00 500.00 L 0.00 0.00 Z" fill="#ffffff" />
<path d="M 234.01 57.88 C 297.53 57.86 361.05 57.89 424.57 57.87 C 424.57 139.43 424.59 221.00 424.56 302.57 C 412.47 307.95 399.33 312.13 386.00 312.40 C 380.00 312.46 373.65 311.10 369.28 306.71 C 366.24 303.60 365.51 299.19 365.68 295.00 C 365.90 289.16 368.13 283.72 368.49 278.00 C 368.55 275.62 368.18 272.41 365.80 271.18 C 362.65 269.43 358.21 270.41 355.39 272.41 C 354.01 273.34 353.87 275.45 353.34 276.93 C 346.34 273.27 338.98 271.01 331.01 272.49 C 323.18 274.05 315.81 278.62 310.14 284.14 C 303.25 290.65 299.11 299.91 297.61 309.18 C 297.25 310.95 297.17 312.58 296.16 314.13 C 292.75 319.46 288.53 324.63 283.40 328.39 C 281.54 329.69 279.26 331.04 276.91 330.44 C 274.65 329.56 274.17 327.20 274.08 325.03 C 273.77 315.28 276.97 304.70 276.04 294.99 C 275.64 292.05 275.01 288.43 272.09 286.92 C 267.22 285.16 262.67 286.46 258.00 288.00 C 256.35 288.47 252.47 289.41 252.09 286.89 C 252.07 282.52 255.20 278.42 256.03 274.03 C 256.46 271.61 257.30 268.64 254.89 266.99 C 249.25 263.85 241.73 265.96 239.39 272.20 C 237.85 276.87 237.25 283.18 238.15 288.02 C 238.82 291.92 242.45 294.10 246.00 295.03 C 250.77 296.25 255.14 295.24 259.89 295.33 C 261.77 295.30 262.06 297.52 261.94 298.95 C 260.69 308.79 258.72 317.90 259.28 328.01 C 259.67 332.32 261.31 337.46 265.38 339.64 C 269.46 341.73 274.60 341.30 278.83 339.87 C 287.12 336.93 294.26 330.80 298.54 323.14 C 299.86 325.88 301.34 328.37 303.96 330.06 C 310.71 334.33 319.28 334.71 326.58 331.59 C 337.36 327.07 346.01 318.05 352.04 308.21 C 353.36 313.57 356.07 318.28 361.10 320.89 C 368.18 324.56 377.26 324.83 385.01 323.76 C 398.77 321.93 412.31 317.09 424.60 310.69 C 424.54 324.13 424.60 337.56 424.57 351.00 C 424.59 352.97 424.45 355.02 424.84 356.95 C 427.44 353.82 428.87 349.34 430.70 345.67 C 442.03 319.54 447.31 290.62 445.36 262.17 C 446.24 263.05 447.45 263.85 448.01 264.98 C 448.83 273.78 448.15 282.25 447.50 291.01 C 444.80 317.92 436.30 344.19 422.39 367.41 C 415.52 378.58 407.80 389.26 399.08 399.07 C 378.80 420.77 353.59 437.63 325.54 447.49 C 305.61 454.78 284.21 458.45 263.00 458.41 C 253.12 458.77 243.03 457.39 233.19 456.26 C 207.52 452.08 182.59 442.54 161.01 427.95 C 154.59 423.42 148.14 418.89 142.00 413.98 C 115.55 391.53 95.92 361.49 85.60 328.39 C 78.67 306.29 76.18 283.09 77.43 260.00 C 79.46 230.00 88.96 200.44 104.92 174.95 C 112.71 163.53 120.94 151.47 130.90 141.90 C 140.88 131.61 152.18 122.91 164.33 115.33 C 178.81 106.13 194.69 99.10 211.20 94.46 C 213.23 93.64 214.22 94.87 215.92 95.74 C 204.18 98.98 192.54 103.25 181.59 108.58 C 164.80 116.76 149.34 127.99 135.72 140.71 C 129.12 147.43 122.42 154.28 117.00 162.00 C 104.84 178.40 95.00 196.28 88.70 215.75 C 81.29 238.27 78.21 262.34 80.20 285.98 C 82.76 323.25 97.12 359.40 120.61 388.42 C 139.48 411.25 163.50 429.67 190.83 441.22 C 222.04 454.85 257.42 458.88 291.00 453.54 C 313.37 450.32 334.72 442.48 354.34 431.33 C 364.64 425.18 374.54 418.54 383.40 410.39 C 400.36 395.98 414.56 377.40 424.77 357.73 C 361.77 357.78 297.19 357.73 234.01 357.75 C 233.99 343.21 234.01 328.67 234.00 314.13 C 228.48 319.64 223.15 325.24 218.42 331.45 C 217.68 332.52 216.73 333.62 216.84 335.01 C 217.18 336.66 218.65 338.08 219.60 339.43 C 227.09 348.93 232.11 359.87 235.50 371.43 L 236.99 371.71 C 236.99 373.47 236.99 375.23 237.00 377.00 C 239.33 377.00 241.67 377.00 244.00 377.01 L 244.03 378.17 C 241.68 378.17 239.33 378.17 236.99 378.17 C 237.67 382.08 238.08 385.93 238.29 389.89 C 240.44 390.28 242.41 390.04 244.53 389.70 C 243.00 392.05 240.59 391.09 238.20 391.20 C 237.96 398.93 236.44 407.89 230.01 413.01 C 225.31 416.99 218.85 417.36 213.46 414.55 C 205.72 410.56 199.81 402.73 195.97 395.08 C 190.64 384.14 188.34 370.82 192.09 359.03 C 194.00 352.59 197.55 347.50 200.72 341.74 C 201.68 340.00 201.81 338.16 200.04 336.92 C 196.48 334.74 192.14 333.66 188.01 333.37 C 183.26 333.07 179.37 334.58 174.81 333.56 C 173.02 333.07 171.33 332.93 170.41 331.09 C 169.74 329.19 170.91 328.29 172.03 327.01 C 176.43 322.40 181.58 318.61 185.99 313.99 C 196.00 303.60 204.46 291.66 208.84 277.79 C 209.73 275.34 207.38 273.54 205.57 272.40 C 200.72 269.07 193.33 271.02 188.50 273.51 C 186.14 274.89 182.24 277.02 181.89 280.01 C 182.37 284.03 186.27 287.39 188.09 290.99 C 186.91 292.61 185.80 294.10 183.88 294.89 C 181.59 295.91 179.35 294.63 177.76 296.73 C 172.28 302.71 165.98 307.81 159.18 312.20 C 150.71 317.65 141.88 322.42 132.20 325.35 C 124.97 327.65 117.61 329.01 109.99 328.15 C 101.42 327.43 93.35 322.47 88.82 315.15 C 84.51 308.38 83.29 300.06 84.16 292.18 C 85.01 285.06 88.19 278.36 93.84 273.82 C 104.05 264.97 120.62 260.69 133.16 266.83 C 136.59 268.51 140.68 270.86 141.47 274.95 C 141.91 278.18 140.23 281.77 138.33 284.33 C 133.56 290.54 125.89 294.94 118.00 295.24 C 112.52 295.40 106.91 292.76 102.59 289.55 C 99.71 292.42 99.79 296.18 99.59 299.99 C 99.38 308.62 105.70 316.73 114.18 318.45 C 121.22 320.01 129.22 317.27 135.85 314.90 C 149.57 309.52 162.36 301.01 175.04 293.57 C 170.73 289.40 168.55 283.64 170.73 277.78 C 173.26 271.41 180.35 267.72 186.49 265.65 C 193.80 263.30 202.00 263.35 209.49 264.77 C 213.95 266.03 219.78 268.74 221.72 273.25 C 223.70 277.83 221.11 283.12 219.40 287.41 C 213.73 300.09 205.15 311.58 195.11 321.14 C 194.03 322.12 193.37 323.31 192.75 324.61 C 199.07 324.55 202.85 325.62 208.09 329.06 C 209.77 328.12 211.40 327.12 212.84 325.84 C 220.32 319.19 226.81 311.52 233.96 304.62 C 234.06 222.38 233.97 140.12 234.01 57.88 Z" fill="#1c2120" />
<path d="M 207.03 82.33 C 209.32 81.68 210.67 82.44 212.53 83.61 C 203.17 86.07 193.95 89.22 184.99 92.86 C 174.88 97.54 164.91 102.48 155.55 108.55 C 141.34 118.08 128.15 128.96 116.76 141.76 C 107.39 152.29 99.12 163.88 92.08 176.09 C 74.21 207.40 65.02 243.95 66.66 280.00 C 67.86 313.59 77.69 347.01 95.30 375.67 C 104.59 391.37 116.36 404.90 129.52 417.47 C 143.48 430.05 159.03 440.77 175.82 449.23 C 189.25 455.60 203.32 460.73 217.75 464.34 C 227.72 466.54 237.86 468.06 248.04 468.87 C 259.68 470.06 271.41 468.87 283.02 468.25 C 299.63 466.38 315.96 462.48 331.63 456.66 C 344.07 451.76 356.55 446.15 367.70 438.74 C 403.89 416.09 432.09 380.84 446.84 340.83 C 456.08 315.55 460.06 288.73 458.41 261.85 C 459.62 263.19 461.44 263.85 461.30 265.89 C 463.12 304.99 452.45 344.67 431.83 377.90 C 427.31 384.99 422.33 391.60 417.26 398.28 C 401.65 417.97 382.18 433.88 360.48 446.42 C 347.13 453.88 332.81 459.64 318.22 464.17 C 308.91 466.42 299.53 469.01 289.99 470.07 C 281.69 471.20 273.36 471.70 264.99 472.04 C 228.31 472.37 191.70 462.81 160.31 443.70 C 152.46 438.68 145.09 432.88 137.47 427.52 C 126.54 419.71 117.69 410.20 109.11 399.96 C 97.86 386.26 88.46 371.00 81.22 354.83 C 68.22 326.09 62.66 294.48 63.94 263.02 C 65.48 230.83 75.07 199.19 91.56 171.52 C 97.11 162.61 103.36 154.08 109.79 145.80 C 122.30 131.04 136.93 117.79 153.04 107.07 C 169.97 96.41 187.68 87.66 207.03 82.33 Z" fill="#1c2120" />
<path d="M 86.96 238.94 C 88.84 238.95 90.73 238.98 92.61 239.01 C 94.12 243.99 95.87 248.85 97.17 253.89 C 98.58 248.85 100.13 243.85 101.82 238.91 C 103.66 238.93 105.49 238.95 107.33 238.97 C 107.34 245.65 107.33 252.32 107.33 259.00 C 106.08 259.00 104.84 259.00 103.60 259.00 C 103.60 253.60 103.54 248.20 103.68 242.79 C 102.22 248.28 100.33 253.60 98.64 259.01 C 97.61 258.98 96.58 258.94 95.55 258.90 C 93.91 253.78 92.46 248.57 90.51 243.55 C 90.77 248.71 90.67 253.85 90.67 259.01 C 89.43 259.00 88.19 259.00 86.95 258.99 C 86.95 252.31 86.95 245.62 86.96 238.94 Z" fill="#1c2120" />
<path d="M 111.20 238.96 C 115.38 239.04 119.68 238.68 123.83 239.22 C 127.19 239.86 129.09 242.44 128.64 245.85 C 128.29 248.50 126.52 249.57 124.40 250.80 C 126.18 253.52 127.94 256.26 129.70 259.00 C 128.12 259.00 126.55 259.00 124.97 259.00 C 123.42 256.48 121.87 253.96 120.35 251.42 C 118.70 251.41 117.05 251.40 115.40 251.39 C 115.39 253.92 115.39 256.46 115.39 259.00 C 113.99 259.00 112.59 259.00 111.20 258.99 C 111.20 252.32 111.19 245.64 111.20 238.96 Z" fill="#1c2120" />
<path d="M 115.39 242.20 C 117.88 242.24 120.58 241.99 123.01 242.59 C 125.05 243.71 124.88 246.86 122.78 247.79 C 120.41 248.32 117.82 248.09 115.40 248.13 C 115.40 246.15 115.39 244.18 115.39 242.20 Z" fill="#ffffff" />
<path d="M 117.47 274.57 C 120.04 273.83 124.09 272.75 125.47 275.93 C 126.25 279.71 123.86 283.01 120.56 284.57 C 117.41 286.06 113.05 287.31 109.98 285.01 C 108.78 284.01 106.97 282.11 107.37 280.41 C 110.16 277.75 113.87 275.89 117.47 274.57 Z" fill="#ffffff" />
<path d="M 332.22 282.28 C 337.36 280.24 344.72 281.76 348.93 285.08 C 348.01 290.52 345.18 295.77 342.60 300.60 C 338.44 307.74 333.22 315.56 326.32 320.29 C 323.36 322.35 319.51 322.84 316.64 320.37 C 314.93 318.49 314.57 315.43 314.53 313.00 C 314.53 306.31 316.62 299.63 319.78 293.78 C 322.48 288.77 326.89 284.40 332.22 282.28 Z" fill="#1c2120" />
<path d="M 208.73 346.24 C 211.43 347.87 212.44 350.40 214.09 352.95 C 217.51 358.60 219.70 364.65 221.62 370.94 C 218.54 371.20 214.95 371.28 212.71 373.74 C 211.21 375.51 211.49 378.22 213.46 379.52 C 216.54 381.29 220.67 381.57 224.11 382.23 C 224.62 384.73 224.91 387.18 224.99 389.73 C 219.90 390.66 215.66 389.54 210.88 387.97 L 211.67 389.32 C 215.87 391.52 220.66 391.61 225.26 390.94 C 225.28 395.27 225.36 401.01 222.75 404.70 C 221.09 406.88 218.46 406.80 216.12 405.86 C 210.09 403.20 205.64 397.83 203.24 391.79 C 199.30 382.00 199.07 370.66 201.70 360.51 C 203.11 355.45 205.28 350.25 208.73 346.24 Z" fill="#ffffff" />
<path d="M 281.71 371.38 L 282.87 371.21 C 283.11 377.80 282.80 384.40 283.06 390.99 L 281.45 390.99 L 281.92 387.14 C 279.16 391.22 274.24 392.76 269.98 389.99 C 266.20 387.51 265.66 382.04 268.89 378.87 C 272.85 375.13 278.91 376.22 281.81 380.73 C 281.74 377.62 281.57 374.49 281.71 371.38 Z" fill="#1c2120" />
<path d="M 332.01 371.34 C 333.90 371.82 335.73 371.90 336.32 374.10 C 331.43 372.01 326.32 371.26 321.77 374.63 C 317.48 377.88 317.52 384.89 321.97 387.99 C 326.93 391.27 332.26 390.21 337.34 387.89 C 336.59 389.36 336.08 389.94 334.50 390.45 C 329.85 392.12 323.61 391.64 319.95 388.04 C 316.34 384.53 316.27 378.35 319.70 374.70 C 322.85 371.38 327.64 370.52 332.01 371.34 Z" fill="#1c2120" />
<path d="M 342.19 371.03 C 342.26 377.66 342.11 384.31 342.27 390.95 L 340.86 391.03 C 341.07 384.64 340.81 378.25 340.98 371.87 C 341.38 371.58 341.78 371.30 342.19 371.03 Z" fill="#1c2120" />
<path d="M 368.46 371.52 L 369.65 371.07 C 369.71 374.25 369.68 377.43 369.59 380.61 C 372.42 376.50 377.71 375.28 381.80 378.26 C 385.78 381.29 385.46 387.62 381.13 390.17 C 376.95 392.67 372.24 391.13 369.49 387.27 L 369.92 391.01 L 368.30 391.00 C 368.55 384.51 368.23 378.00 368.46 371.52 Z" fill="#1c2120" />
<path d="M 222.00 372.67 C 222.92 375.31 223.38 378.16 223.97 380.89 C 221.07 380.32 217.92 380.01 215.17 378.90 C 213.47 378.12 212.72 376.73 213.50 374.92 C 215.19 372.79 219.66 371.65 222.00 372.67 Z" fill="#ffffff" />
<path d="M 247.23 376.99 L 248.64 377.01 C 248.62 380.27 248.25 383.77 248.94 386.97 C 250.32 391.06 256.49 390.91 259.02 388.05 C 261.74 385.52 260.57 380.42 260.69 377.02 L 262.09 376.98 C 261.99 381.65 261.99 386.33 262.10 391.00 L 260.63 391.01 C 260.75 389.63 260.88 388.26 261.01 386.88 C 258.57 392.05 250.92 393.21 247.99 388.04 C 246.80 384.68 247.46 380.53 247.23 376.99 Z" fill="#1c2120" />
<path d="M 288.58 376.99 L 289.98 377.01 C 290.04 380.40 289.48 384.28 290.50 387.54 C 293.17 392.23 301.17 390.11 301.97 385.02 C 302.26 382.38 302.08 379.66 302.04 377.01 L 303.47 376.99 C 303.45 380.00 303.23 383.06 303.51 386.06 C 303.84 388.54 304.88 390.41 303.82 392.86 C 302.57 396.26 298.27 397.31 295.04 397.23 C 292.46 396.96 289.12 397.04 287.65 394.50 C 291.90 395.74 297.44 397.35 301.29 394.25 C 303.63 392.16 303.12 389.81 302.43 387.03 C 299.95 391.67 293.64 392.97 289.98 389.08 C 287.79 385.93 288.93 380.66 288.58 376.99 Z" fill="#1c2120" />
<path d="M 347.98 377.00 L 349.39 377.00 C 349.36 380.30 349.00 383.84 349.70 387.09 C 351.29 391.12 357.38 390.87 359.91 387.93 C 362.45 385.40 361.32 380.32 361.44 377.02 L 362.85 376.98 C 362.75 381.65 362.74 386.33 362.86 391.00 L 361.38 391.01 L 361.75 387.00 C 359.29 392.02 351.79 393.13 348.81 388.20 C 347.51 384.85 348.23 380.57 347.98 377.00 Z" fill="#1c2120" />
<path d="M 272.24 378.28 C 275.42 377.25 279.18 378.07 280.91 381.13 C 282.58 383.90 281.41 387.18 278.88 388.93 C 275.20 391.63 269.00 389.78 268.14 385.07 C 267.58 382.08 269.44 379.26 272.24 378.28 Z" fill="#ffffff" />
<path d="M 374.14 378.19 C 377.06 377.35 380.63 378.10 382.34 380.79 C 384.27 383.65 383.17 387.64 380.15 389.25 C 376.61 391.11 372.34 390.15 370.35 386.59 C 368.54 383.22 370.59 379.20 374.14 378.19 Z" fill="#ffffff" />
</svg>